<svg id="Group_3" data-name="Group 3" xmlns="http://www.w3.org/2000/svg" width="37.247" height="37.247" viewBox="0 0 37.247 37.247">
  <g id="Group_52" data-name="Group 52">
    <g id="noun-target-2221573">
      <path id="Path_37" data-name="Path 37" d="M40.671,11.6a.152.152,0,0,0,.095-.044l4.106-4.107h0a.152.152,0,0,0-.1-.259l-2.724-.147h0a1.478,1.478,0,0,1-1.4-1.4l-.147-2.724h0a.152.152,0,0,0-.259-.1L36.14,6.935a.153.153,0,0,0-.044.1l-.242,2.95L25.233,20.6h0A2.687,2.687,0,1,0,27.1,22.469L37.721,11.847Z" transform="translate(-7.67 -2.784)" fill="#333"/>
      <path id="Path_38" data-name="Path 38" d="M19.636,41.255a16.836,16.836,0,0,0,14.29-25.764L31.8,17.619a13.927,13.927,0,1,1-5.376-5.381l2.127-2.127a16.849,16.849,0,1,0-8.915,31.144Z" transform="translate(-2.784 -4.009)" fill="#333"/>
      <path id="Path_39" data-name="Path 39" d="M22.082,20.006a6.738,6.738,0,0,1,1.333.132l2.33-2.33h0a9.551,9.551,0,0,0-3.663-.72,9.763,9.763,0,1,0,9.763,9.763,9.654,9.654,0,0,0-.72-3.667l-2.33,2.33h0a6.845,6.845,0,1,1-6.712-5.509Z" transform="translate(-5.23 -6.454)" fill="#333"/>
    </g>
  </g>
</svg>
